<svg width="2677" height="1852" xmlns="http://www.w3.org/2000/svg" xmlns:xlink="http://www.w3.org/1999/xlink" xml:space="preserve" overflow="hidden"><defs><linearGradient x1="870" y1="1080.5" x2="3530" y2="1080.5" gradientUnits="userSpaceOnUse" spreadMethod="reflect" id="fill0"><stop offset="0" stop-color="#0432FF" stop-opacity="1"/><stop offset="0.00392157" stop-color="#0532FE" stop-opacity="1"/><stop offset="0.00784314" stop-color="#0733FE" stop-opacity="1"/><stop offset="0.0117647" stop-color="#0934FE" stop-opacity="1"/><stop offset="0.0156863" stop-color="#0B34FE" stop-opacity="1"/><stop offset="0.0196078" stop-color="#0D35FE" stop-opacity="1"/><stop offset="0.0235294" stop-color="#0E36FE" stop-opacity="1"/><stop offset="0.027451" stop-color="#1036FE" stop-opacity="1"/><stop offset="0.0313726" stop-color="#1237FE" stop-opacity="1"/><stop offset="0.0352941" stop-color="#1438FE" stop-opacity="1"/><stop offset="0.0392157" stop-color="#1639FE" stop-opacity="1"/><stop offset="0.0431373" stop-color="#1739FE" stop-opacity="1"/><stop offset="0.0470588" stop-color="#193AFE" stop-opacity="1"/><stop offset="0.0509804" stop-color="#1B3BFE" stop-opacity="1"/><stop offset="0.054902" stop-color="#1D3BFD" stop-opacity="1"/><stop offset="0.0588235" stop-color="#1E3CFD" stop-opacity="1"/><stop offset="0.0627451" stop-color="#203DFD" stop-opacity="1"/><stop offset="0.0666667" stop-color="#223DFD" stop-opacity="1"/><stop offset="0.0705882" stop-color="#243EFD" stop-opacity="1"/><stop offset="0.0745098" stop-color="#253FFD" stop-opacity="1"/><stop offset="0.0784314" stop-color="#273FFC" stop-opacity="1"/><stop offset="0.0823529" stop-color="#2940FC" stop-opacity="1"/><stop offset="0.0862745" stop-color="#2B41FC" stop-opacity="1"/><stop offset="0.0901961" stop-color="#2C41FC" stop-opacity="1"/><stop offset="0.0941176" stop-color="#2E42FB" stop-opacity="1"/><stop offset="0.0980392" stop-color="#3043FB" stop-opacity="1"/><stop offset="0.101961" stop-color="#3143FB" stop-opacity="1"/><stop offset="0.105882" stop-color="#3344FB" stop-opacity="1"/><stop offset="0.109804" stop-color="#3545FA" stop-opacity="1"/><stop offset="0.113725" stop-color="#3645FA" stop-opacity="1"/><stop offset="0.117647" stop-color="#3846FA" stop-opacity="1"/><stop offset="0.121569" stop-color="#3A46FA" stop-opacity="1"/><stop offset="0.12549" stop-color="#3B47F9" stop-opacity="1"/><stop offset="0.129412" stop-color="#3D48F9" stop-opacity="1"/><stop offset="0.133333" stop-color="#3F48F9" stop-opacity="1"/><stop offset="0.137255" stop-color="#4049F8" stop-opacity="1"/><stop offset="0.141176" stop-color="#424AF8" stop-opacity="1"/><stop offset="0.145098" stop-color="#434AF8" stop-opacity="1"/><stop offset="0.14902" stop-color="#454BF7" stop-opacity="1"/><stop offset="0.152941" stop-color="#474BF7" stop-opacity="1"/><stop offset="0.156863" stop-color="#484CF7" stop-opacity="1"/><stop offset="0.160784" stop-color="#4A4DF6" stop-opacity="1"/><stop offset="0.164706" stop-color="#4B4DF6" stop-opacity="1"/><stop offset="0.168627" stop-color="#4D4EF5" stop-opacity="1"/><stop offset="0.172549" stop-color="#4F4EF5" stop-opacity="1"/><stop offset="0.176471" stop-color="#504FF5" stop-opacity="1"/><stop offset="0.180392" stop-color="#5250F4" stop-opacity="1"/><stop offset="0.184314" stop-color="#5350F4" stop-opacity="1"/><stop offset="0.188235" stop-color="#5551F3" stop-opacity="1"/><stop offset="0.192157" stop-color="#5651F3" stop-opacity="1"/><stop offset="0.196078" stop-color="#5852F2" stop-opacity="1"/><stop offset="0.2" stop-color="#5953F2" stop-opacity="1"/><stop offset="0.203922" stop-color="#5B53F2" stop-opacity="1"/><stop offset="0.207843" stop-color="#5C54F1" stop-opacity="1"/><stop offset="0.211765" stop-color="#5E54F1" stop-opacity="1"/><stop offset="0.215686" stop-color="#5F55F0" stop-opacity="1"/><stop offset="0.219608" stop-color="#6156F0" stop-opacity="1"/><stop offset="0.223529" stop-color="#6256EF" stop-opacity="1"/><stop offset="0.227451" stop-color="#6457EF" stop-opacity="1"/><stop offset="0.231373" stop-color="#6557EE" stop-opacity="1"/><stop offset="0.235294" stop-color="#6758EE" stop-opacity="1"/><stop offset="0.239216" stop-color="#6858ED" stop-opacity="1"/><stop offset="0.243137" stop-color="#6A59ED" stop-opacity="1"/><stop offset="0.247059" stop-color="#6B5AEC" stop-opacity="1"/><stop offset="0.25098" stop-color="#6D5AEB" stop-opacity="1"/><stop offset="0.254902" stop-color="#6E5BEB" stop-opacity="1"/><stop offset="0.258824" stop-color="#6F5BEA" stop-opacity="1"/><stop offset="0.262745" stop-color="#715CEA" stop-opacity="1"/><stop offset="0.266667" stop-color="#725CE9" stop-opacity="1"/><stop offset="0.270588" stop-color="#745DE9" stop-opacity="1"/><stop offset="0.27451" stop-color="#755DE8" stop-opacity="1"/><stop offset="0.278431" stop-color="#765EE7" stop-opacity="1"/><stop offset="0.282353" stop-color="#785EE7" stop-opacity="1"/><stop offset="0.286275" stop-color="#795FE6" stop-opacity="1"/><stop offset="0.290196" stop-color="#7B5FE5" stop-opacity="1"/><stop offset="0.294118" stop-color="#7C60E5" stop-opacity="1"/><stop offset="0.298039" stop-color="#7D61E4" stop-opacity="1"/><stop offset="0.301961" stop-color="#7F61E3" stop-opacity="1"/><stop offset="0.305882" stop-color="#8062E3" stop-opacity="1"/><stop offset="0.309804" stop-color="#8162E2" stop-opacity="1"/><stop offset="0.313726" stop-color="#8363E1" stop-opacity="1"/><stop offset="0.317647" stop-color="#8463E1" stop-opacity="1"/><stop offset="0.321569" stop-color="#8564E0" stop-opacity="1"/><stop offset="0.32549" stop-color="#8764DF" stop-opacity="1"/><stop offset="0.329412" stop-color="#8865DF" stop-opacity="1"/><stop offset="0.333333" stop-color="#8965DE" stop-opacity="1"/><stop offset="0.337255" stop-color="#8A66DD" stop-opacity="1"/><stop offset="0.341176" stop-color="#8C66DD" stop-opacity="1"/><stop offset="0.345098" stop-color="#8D67DC" stop-opacity="1"/><stop offset="0.34902" stop-color="#8E67DB" stop-opacity="1"/><stop offset="0.352941" stop-color="#9068DA" stop-opacity="1"/><stop offset="0.356863" stop-color="#9168DA" stop-opacity="1"/><stop offset="0.360784" stop-color="#9269D9" stop-opacity="1"/><stop offset="0.364706" stop-color="#9369D8" stop-opacity="1"/><stop offset="0.368627" stop-color="#956AD7" stop-opacity="1"/><stop offset="0.372549" stop-color="#966AD6" stop-opacity="1"/><stop offset="0.376471" stop-color="#976AD6" stop-opacity="1"/><stop offset="0.380392" stop-color="#986BD5" stop-opacity="1"/><stop offset="0.384314" stop-color="#996BD4" stop-opacity="1"/><stop offset="0.388235" stop-color="#9B6CD3" stop-opacity="1"/><stop offset="0.392157" stop-color="#9C6CD2" stop-opacity="1"/><stop offset="0.396078" stop-color="#9D6DD2" stop-opacity="1"/><stop offset="0.4" stop-color="#9E6DD1" stop-opacity="1"/><stop offset="0.403922" stop-color="#9F6ED0" stop-opacity="1"/><stop offset="0.407843" stop-color="#A16ECF" stop-opacity="1"/><stop offset="0.411765" stop-color="#A26FCE" stop-opacity="1"/><stop offset="0.415686" stop-color="#A36FCD" stop-opacity="1"/><stop offset="0.419608" stop-color="#A470CC" stop-opacity="1"/><stop offset="0.423529" stop-color="#A570CC" stop-opacity="1"/><stop offset="0.427451" stop-color="#A670CB" stop-opacity="1"/><stop offset="0.431373" stop-color="#A771CA" stop-opacity="1"/><stop offset="0.435294" stop-color="#A971C9" stop-opacity="1"/><stop offset="0.439216" stop-color="#AA72C8" stop-opacity="1"/><stop offset="0.443137" stop-color="#AB72C7" stop-opacity="1"/><stop offset="0.447059" stop-color="#AC73C6" stop-opacity="1"/><stop offset="0.45098" stop-color="#AD73C5" stop-opacity="1"/><stop offset="0.454902" stop-color="#AE73C4" stop-opacity="1"/><stop offset="0.458824" stop-color="#AF74C3" stop-opacity="1"/><stop offset="0.462745" stop-color="#B074C2" stop-opacity="1"/><stop offset="0.466667" stop-color="#B175C1" stop-opacity="1"/><stop offset="0.470588" stop-color="#B275C0" stop-opacity="1"/><stop offset="0.47451" stop-color="#B375BF" stop-opacity="1"/><stop offset="0.478431" stop-color="#B476BE" stop-opacity="1"/><stop offset="0.482353" stop-color="#B576BE" stop-opacity="1"/><stop offset="0.486275" stop-color="#B777BD" stop-opacity="1"/><stop offset="0.490196" stop-color="#B877BC" stop-opacity="1"/><stop offset="0.494118" stop-color="#B977BB" stop-opacity="1"/><stop offset="0.498039" stop-color="#BA78B9" stop-opacity="1"/><stop offset="0.501961" stop-color="#BB78B8" stop-opacity="1"/><stop offset="0.505882" stop-color="#BC79B7" stop-opacity="1"/><stop offset="0.509804" stop-color="#BD79B6" stop-opacity="1"/><stop offset="0.513726" stop-color="#BE79B5" stop-opacity="1"/><stop offset="0.517647" stop-color="#BF7AB4" stop-opacity="1"/><stop offset="0.521569" stop-color="#C07AB3" stop-opacity="1"/><stop offset="0.52549" stop-color="#C07BB2" stop-opacity="1"/><stop offset="0.529412" stop-color="#C17BB1" stop-opacity="1"/><stop offset="0.533333" stop-color="#C27BB0" stop-opacity="1"/><stop offset="0.537255" stop-color="#C37CAF" stop-opacity="1"/><stop offset="0.541176" stop-color="#C47CAE" stop-opacity="1"/><stop offset="0.545098" stop-color="#C57CAD" stop-opacity="1"/><stop offset="0.54902" stop-color="#C67DAC" stop-opacity="1"/><stop offset="0.552941" stop-color="#C77DAB" stop-opacity="1"/><stop offset="0.556863" stop-color="#C87DA9" stop-opacity="1"/><stop offset="0.560784" stop-color="#C97EA8" stop-opacity="1"/><stop offset="0.564706" stop-color="#CA7EA7" stop-opacity="1"/><stop offset="0.568627" stop-color="#CB7EA6" stop-opacity="1"/><stop offset="0.572549" stop-color="#CB7FA5" stop-opacity="1"/><stop offset="0.576471" stop-color="#CC7FA4" stop-opacity="1"/><stop offset="0.580392" stop-color="#CD7FA3" stop-opacity="1"/><stop offset="0.584314" stop-color="#CE80A1" stop-opacity="1"/><stop offset="0.588235" stop-color="#CF80A0" stop-opacity="1"/><stop offset="0.592157" stop-color="#D0809F" stop-opacity="1"/><stop offset="0.596078" stop-color="#D1819E" stop-opacity="1"/><stop offset="0.6" stop-color="#D1819D" stop-opacity="1"/><stop offset="0.603922" stop-color="#D2819B" stop-opacity="1"/><stop offset="0.607843" stop-color="#D3829A" stop-opacity="1"/><stop offset="0.611765" stop-color="#D48299" stop-opacity="1"/><stop offset="0.615686" stop-color="#D58298" stop-opacity="1"/><stop offset="0.619608" stop-color="#D68397" stop-opacity="1"/><stop offset="0.623529" stop-color="#D68395" stop-opacity="1"/><stop offset="0.627451" stop-color="#D78394" stop-opacity="1"/><stop offset="0.631373" stop-color="#D88493" stop-opacity="1"/><stop offset="0.635294" stop-color="#D98492" stop-opacity="1"/><stop offset="0.639216" stop-color="#D98490" stop-opacity="1"/><stop offset="0.643137" stop-color="#DA848F" stop-opacity="1"/><stop offset="0.647059" stop-color="#DB858E" stop-opacity="1"/><stop offset="0.65098" stop-color="#DC858C" stop-opacity="1"/><stop offset="0.654902" stop-color="#DC858B" stop-opacity="1"/><stop offset="0.658824" stop-color="#DD868A" stop-opacity="1"/><stop offset="0.662745" stop-color="#DE8689" stop-opacity="1"/><stop offset="0.666667" stop-color="#DF8687" stop-opacity="1"/><stop offset="0.670588" stop-color="#DF8686" stop-opacity="1"/><stop offset="0.67451" stop-color="#E08785" stop-opacity="1"/><stop offset="0.678431" stop-color="#E18783" stop-opacity="1"/><stop offset="0.682353" stop-color="#E18782" stop-opacity="1"/><stop offset="0.686275" stop-color="#E28781" stop-opacity="1"/><stop offset="0.690196" stop-color="#E3887F" stop-opacity="1"/><stop offset="0.694118" stop-color="#E3887E" stop-opacity="1"/><stop offset="0.698039" stop-color="#E4887D" stop-opacity="1"/><stop offset="0.701961" stop-color="#E5887B" stop-opacity="1"/><stop offset="0.705882" stop-color="#E5897A" stop-opacity="1"/><stop offset="0.709804" stop-color="#E68978" stop-opacity="1"/><stop offset="0.713726" stop-color="#E68977" stop-opacity="1"/><stop offset="0.717647" stop-color="#E78976" stop-opacity="1"/><stop offset="0.721569" stop-color="#E88A74" stop-opacity="1"/><stop offset="0.72549" stop-color="#E88A73" stop-opacity="1"/><stop offset="0.729412" stop-color="#E98A71" stop-opacity="1"/><stop offset="0.733333" stop-color="#E98A70" stop-opacity="1"/><stop offset="0.737255" stop-color="#EA8B6F" stop-opacity="1"/><stop offset="0.741176" stop-color="#EB8B6D" stop-opacity="1"/><stop offset="0.745098" stop-color="#EB8B6C" stop-opacity="1"/><stop offset="0.74902" stop-color="#EC8B6A" stop-opacity="1"/><stop offset="0.752941" stop-color="#EC8B69" stop-opacity="1"/><stop offset="0.756863" stop-color="#ED8C67" stop-opacity="1"/><stop offset="0.760784" stop-color="#ED8C66" stop-opacity="1"/><stop offset="0.764706" stop-color="#EE8C64" stop-opacity="1"/><stop offset="0.768627" stop-color="#EE8C63" stop-opacity="1"/><stop offset="0.772549" stop-color="#EF8C61" stop-opacity="1"/><stop offset="0.776471" stop-color="#EF8D60" stop-opacity="1"/><stop offset="0.780392" stop-color="#F08D5E" stop-opacity="1"/><stop offset="0.784314" stop-color="#F08D5D" stop-opacity="1"/><stop offset="0.788235" stop-color="#F18D5B" stop-opacity="1"/><stop offset="0.792157" stop-color="#F18D5A" stop-opacity="1"/><stop offset="0.796078" stop-color="#F28E58" stop-opacity="1"/><stop offset="0.8" stop-color="#F28E57" stop-opacity="1"/><stop offset="0.803922" stop-color="#F38E55" stop-opacity="1"/><stop offset="0.807843" stop-color="#F38E54" stop-opacity="1"/><stop offset="0.811765" stop-color="#F48E52" stop-opacity="1"/><stop offset="0.815686" stop-color="#F48E50" stop-opacity="1"/><stop offset="0.819608" stop-color="#F48F4F" stop-opacity="1"/><stop offset="0.823529" stop-color="#F58F4D" stop-opacity="1"/><stop offset="0.827451" stop-color="#F58F4C" stop-opacity="1"/><stop offset="0.831373" stop-color="#F68F4A" stop-opacity="1"/><stop offset="0.835294" stop-color="#F68F49" stop-opacity="1"/><stop offset="0.839216" stop-color="#F68F47" stop-opacity="1"/><stop offset="0.843137" stop-color="#F78F45" stop-opacity="1"/><stop offset="0.847059" stop-color="#F79044" stop-opacity="1"/><stop offset="0.85098" stop-color="#F79042" stop-opacity="1"/><stop offset="0.854902" stop-color="#F89040" stop-opacity="1"/><stop offset="0.858824" stop-color="#F8903F" stop-opacity="1"/><stop offset="0.862745" stop-color="#F8903D" stop-opacity="1"/><stop offset="0.866667" stop-color="#F9903C" stop-opacity="1"/><stop offset="0.870588" stop-color="#F9903A" stop-opacity="1"/><stop offset="0.87451" stop-color="#F99138" stop-opacity="1"/><stop offset="0.878431" stop-color="#FA9137" stop-opacity="1"/><stop offset="0.882353" stop-color="#FA9135" stop-opacity="1"/><stop offset="0.886275" stop-color="#FA9133" stop-opacity="1"/><stop offset="0.890196" stop-color="#FB9131" stop-opacity="1"/><stop offset="0.894118" stop-color="#FB9130" stop-opacity="1"/><stop offset="0.898039" stop-color="#FB912E" stop-opacity="1"/><stop offset="0.901961" stop-color="#FB912C" stop-opacity="1"/><stop offset="0.905882" stop-color="#FC912B" stop-opacity="1"/><stop offset="0.909804" stop-color="#FC9129" stop-opacity="1"/><stop offset="0.913725" stop-color="#FC9227" stop-opacity="1"/><stop offset="0.917647" stop-color="#FC9225" stop-opacity="1"/><stop offset="0.921569" stop-color="#FC9224" stop-opacity="1"/><stop offset="0.92549" stop-color="#FD9222" stop-opacity="1"/><stop offset="0.929412" stop-color="#FD9220" stop-opacity="1"/><stop offset="0.933333" stop-color="#FD921E" stop-opacity="1"/><stop offset="0.937255" stop-color="#FD921D" stop-opacity="1"/><stop offset="0.941176" stop-color="#FD921B" stop-opacity="1"/><stop offset="0.945098" stop-color="#FD9219" stop-opacity="1"/><stop offset="0.94902" stop-color="#FE9217" stop-opacity="1"/><stop offset="0.952941" stop-color="#FE9216" stop-opacity="1"/><stop offset="0.956863" stop-color="#FE9214" stop-opacity="1"/><stop offset="0.960784" stop-color="#FE9212" stop-opacity="1"/><stop offset="0.964706" stop-color="#FE9210" stop-opacity="1"/><stop offset="0.968627" stop-color="#FE920E" stop-opacity="1"/><stop offset="0.972549" stop-color="#FE920C" stop-opacity="1"/><stop offset="0.976471" stop-color="#FE920B" stop-opacity="1"/><stop offset="0.980392" stop-color="#FE9209" stop-opacity="1"/><stop offset="0.984314" stop-color="#FE9207" stop-opacity="1"/><stop offset="0.988235" stop-color="#FE9205" stop-opacity="1"/><stop offset="0.992157" stop-color="#FE9203" stop-opacity="1"/><stop offset="0.996078" stop-color="#FE9201" stop-opacity="1"/><stop offset="1" stop-color="#FF9300" stop-opacity="1"/></linearGradient></defs><g transform="translate(-861 -320)"><g><text fill="#000000" fill-opacity="1" font-family="Helvetica Neue,Helvetica Neue_MSFontService,sans-serif" font-style="normal" font-variant="normal" font-weight="700" font-stretch="normal" font-size="596" text-anchor="start" direction="ltr" writing-mode="lr-tb" unicode-bidi="normal" text-decoration="none" transform="matrix(1 0 0 1 1422.27 1681)">ArCo</text><path d="M3245.29 1670.63C3215.03 1670.63 3190.51 1695.16 3190.51 1725.42 3190.51 1755.68 3215.03 1780.21 3245.29 1780.21 3275.54 1780.21 3300.07 1755.68 3300.07 1725.42 3300.07 1695.16 3275.54 1670.63 3245.29 1670.63ZM1198.68 1670.63C1168.43 1670.63 1143.9 1695.16 1143.9 1725.42 1143.9 1755.68 1168.43 1780.21 1198.68 1780.21 1228.94 1780.21 1253.47 1755.68 1253.47 1725.42 1253.47 1695.16 1228.94 1670.63 1198.68 1670.63ZM979.562 1487.95C949.307 1487.95 924.781 1512.49 924.781 1542.74 924.781 1573 949.307 1597.53 979.562 1597.53 1009.82 1597.53 1034.34 1573 1034.34 1542.74 1034.34 1512.49 1009.82 1487.95 979.562 1487.95ZM3420.44 1484.35C3390.18 1484.35 3365.66 1508.88 3365.66 1539.14 3365.66 1569.4 3390.18 1593.93 3420.44 1593.93 3450.69 1593.93 3475.22 1569.4 3475.22 1539.14 3475.22 1508.88 3450.69 1484.35 3420.44 1484.35ZM3120.58 733.306C3090.11 733.306 3065.41 758.011 3065.41 788.486 3065.41 818.961 3090.11 843.666 3120.58 843.666 3151.05 843.666 3175.75 818.961 3175.75 788.486 3175.75 758.011 3151.05 733.306 3120.58 733.306ZM2226.47 561.946C2411.07 562.782 2595.45 611.387 2760.41 707.674L2773.5 715.913 2772.15 716.022 2772.15 716.022 2773.5 715.913 2774.43 716.498 2774.44 716.498 2773.5 715.913 2826.41 711.655C2849.64 710.547 2872.95 710.195 2896.31 710.612 2931.34 711.237 2966.49 713.59 3001.61 717.709L3032.89 722.168 3042.55 710.45C3062.52 690.479 3090.11 678.127 3120.58 678.127 3181.52 678.127 3230.92 727.536 3230.92 788.486 3230.92 796.105 3230.15 803.543 3228.68 810.727L3222.43 830.84 3222.51 830.695 3255.49 876.244C3369.38 1042.68 3442.99 1235.61 3467.49 1439.54L3467.58 1440.61 3481.7 1448.27C3510.84 1467.97 3530 1501.31 3530 1539.14 3530 1599.66 3480.95 1648.72 3420.44 1648.72 3359.93 1648.72 3310.88 1599.66 3310.88 1539.14 3310.88 1501.31 3330.04 1467.97 3359.18 1448.27L3367.74 1443.63 3358.15 1380.33C3326.64 1208.44 3256.99 1046.85 3155.74 906.998L3146.86 895.348 3142.81 896.604C3135.63 898.073 3128.19 898.845 3120.58 898.845 3067.25 898.845 3022.77 861.016 3012.48 810.727L3011.79 803.93 2991.85 801.087C2959.48 797.291 2927.1 795.122 2894.82 794.547L2886.96 794.664 2886.06 793.914 2886.06 793.914 2886.96 794.664 2932.01 832.146C3130.58 1008.76 3257.33 1254.34 3284.89 1520.93L3290.02 1625.59 3306.54 1634.56C3335.69 1654.25 3354.85 1687.6 3354.85 1725.42 3354.85 1785.94 3305.79 1835 3245.29 1835 3184.78 1835 3135.72 1785.94 3135.72 1725.42 3135.72 1680.03 3163.32 1641.09 3202.64 1624.45L3205.9 1623.44 3199.59 1513.41C3165.67 1230.96 3010.8 975.592 2773.71 815.164L2753.64 802.533 2718.1 780.178C2699.1 769.087 2679.82 758.683 2660.3 748.965L2636.9 738.273 2638.18 738.001 2638.18 738 2636.9 738.272 2601.02 721.872C2321.28 605.055 2000.29 622.859 1732.88 775.713 1446.37 939.485 1262.19 1234.95 1239.09 1561.33L1236.79 1623.04 1241.33 1624.45C1280.65 1641.09 1308.25 1680.03 1308.25 1725.42 1308.25 1785.94 1259.19 1835 1198.68 1835 1138.18 1835 1089.12 1785.94 1089.12 1725.42 1089.12 1687.6 1108.28 1654.25 1137.43 1634.56L1152.72 1626.25 1155.37 1555.39C1180.43 1201.2 1380.31 880.556 1691.23 702.829 1857.06 608.041 2041.87 561.109 2226.47 561.946ZM2767.17 455.092C2736.91 455.092 2712.39 479.622 2712.39 509.882 2712.39 540.141 2736.91 564.672 2767.17 564.672 2797.42 564.672 2821.95 540.141 2821.95 509.881 2821.95 479.622 2797.42 455.092 2767.17 455.092ZM2217.91 326.013C2381.67 326.755 2545.28 359.278 2699.16 423.54L2699.98 423.912 2705.91 419.017C2723.4 407.202 2744.48 400.303 2767.17 400.303 2827.68 400.303 2876.73 449.363 2876.73 509.882 2876.73 570.401 2827.68 619.461 2767.17 619.461 2714.22 619.461 2670.05 581.899 2659.83 531.966L2658.03 514.073 2589.32 488.002C2276.14 380.825 1927.8 410.974 1634.1 578.855 1317.8 759.649 1106.95 1076.13 1058.03 1431.39L1054.7 1463.34 1057.03 1465.26C1076.86 1485.09 1089.12 1512.49 1089.12 1542.74 1089.12 1603.26 1040.07 1652.32 979.562 1652.32 919.053 1652.32 870.001 1603.26 870 1542.74 870.001 1489.79 907.556 1445.61 957.481 1435.39L957.858 1435.35 959.682 1417.83C1012.77 1032.3 1241.59 688.849 1584.84 492.649 1780.98 380.535 1999.57 325.023 2217.91 326.013Z" stroke="#000000" stroke-width="10.3125" stroke-linecap="butt" stroke-linejoin="miter" stroke-miterlimit="8" stroke-opacity="1" fill="url(#fill0)" fill-rule="evenodd"/></g></g></svg>